# Blender v2.81 (sub 16) OBJ File: ''
# www.blender.org
mtllib ammoCart.mtl
o Cube_Cube.005
v 1.922296 0.179479 -1.000000
v 1.922296 0.179479 1.000000
v -1.922296 0.179479 1.000000
v -1.922295 0.179479 -1.000000
v 1.922296 2.179479 -1.000000
v 1.922295 2.179479 1.000001
v -1.922296 2.179479 1.000000
v -1.922296 2.179479 -1.000000
vt 0.628548 0.999048
vt 0.431425 0.763564
vt 0.430477 1.003005
vt 0.430643 0.761395
vt 0.629994 1.002155
vt 0.630200 0.758756
vt 0.435583 0.990079
vt 0.822743 0.011751
vt 0.440300 0.013430
vt 0.399632 0.999287
vt 0.000605 0.511265
vt 0.400568 0.512159
vt 0.429277 0.009996
vt 0.818797 0.996701
vt 0.823514 0.003299
vt 0.397947 0.515577
vt 0.001017 0.997933
vt 0.400306 0.999595
vt 0.630571 0.762245
vt 0.430105 0.999517
vt 0.822743 0.991758
vt 0.000604 1.003907
vt 0.426919 0.998380
vt 0.000586 0.511389
vn 0.0000 -1.0000 -0.0000
vn 0.0000 1.0000 0.0000
vn 1.0000 0.0000 0.0000
vn -0.0000 -0.0000 1.0000
vn -1.0000 -0.0000 -0.0000
vn 0.0000 0.0000 -1.0000
usemtl Material_001
s off
f 1/1/1 3/2/1 4/3/1
f 8/4/2 6/5/2 5/6/2
f 5/7/3 2/8/3 1/9/3
f 6/10/4 3/11/4 2/12/4
f 3/13/5 8/14/5 4/15/5
f 1/16/6 8/17/6 5/18/6
f 1/1/1 2/19/1 3/2/1
f 8/4/2 7/20/2 6/5/2
f 5/7/3 6/21/3 2/8/3
f 6/10/4 7/22/4 3/11/4
f 3/13/5 7/23/5 8/14/5
f 1/16/6 4/24/6 8/17/6
