# Blender v2.81 (sub 16) OBJ File: ''
# www.blender.org
mtllib mountainRevert.mtl
o Sahne_Plane
v -0.393892 -4.356623 0.226620
v -0.399779 -4.890873 0.236318
v -0.066138 -4.894118 0.260103
v -0.060272 -4.359848 0.250708
v -0.386251 -3.713419 0.207177
v 2.276555 -4.383698 0.398264
v 2.269351 -4.916831 0.426598
v 2.602992 -4.920075 0.450383
v 2.610197 -4.386943 0.422049
v 2.342024 0.497538 0.145790
v 2.335859 0.053698 0.171720
v 2.669339 0.018000 0.193336
v 2.675533 0.467475 0.167769
v -0.334381 0.474374 0.050866
v -0.338822 0.013608 0.050305
v -0.009163 0.039306 0.133893
v 0.003730 0.482979 0.013562
v -0.366542 -1.574979 0.222439
v -0.371806 -2.279022 0.200234
v -0.040027 -2.275201 0.251097
v -0.027476 -1.566753 0.171683
v -0.305116 3.104604 -0.000847
v -0.310378 2.350582 -0.029888
v 0.030663 2.351295 0.005689
v 0.039285 3.102138 0.154411
v 2.375744 3.077116 0.024677
v 2.367206 2.324097 0.156787
v 2.700793 2.317106 0.065755
v 2.711005 3.072791 0.025594
v 1.036873 3.151559 1.353689
v 1.034408 2.466376 0.823581
v 1.367476 2.421313 0.849693
v 1.372384 3.097915 0.271294
v 2.314238 -1.556082 0.255401
v 2.304666 -2.286993 0.289967
v 2.638233 -2.305981 0.312648
v 2.647751 -1.586587 0.277269
v 0.937296 -4.366157 0.369597
v 0.934007 -4.903257 0.342469
v 1.268427 -4.907097 0.355243
v 1.275609 -4.373947 0.327223
v 0.961402 -2.889555 1.117020
v 0.947848 -3.714635 0.425513
v 1.282909 -3.690922 0.600299
v 1.288553 -2.768476 1.720034
v 0.282633 -3.004010 0.329941
v 0.270518 -3.703703 0.404439
v 0.602406 -3.704783 0.453108
v 0.620013 -2.997108 0.417731
v 0.272920 -4.362710 0.280847
v 0.267268 -4.897183 0.287212
v 0.599755 -4.899545 0.327312
v 0.607483 -4.366796 0.291584
v 0.995418 -0.288939 0.994632
v 0.986013 -0.847150 0.281335
v 1.322094 -0.831978 0.440630
v 1.329985 -0.313340 1.473781
v 0.309356 -0.369144 0.314522
v 0.310096 -0.891511 0.232885
v 0.653402 -0.878855 0.123272
v 0.658965 -0.347283 0.232809
v 0.309472 -1.547619 0.152130
v 0.299382 -2.272524 0.194779
v 0.633976 -2.240818 0.492265
v 0.645293 -1.520893 0.264488
v 2.329646 -0.399810 0.197003
v 2.322773 -0.910510 0.223751
v 2.656244 -0.948007 0.245251
v 2.663113 -0.438193 0.218446
v 1.662701 -0.292322 1.042619
v 1.655707 -0.850023 0.295570
v 1.989253 -0.879240 0.202086
v 1.996294 -0.349443 0.290649
v 1.647120 -1.480286 1.099127
v 1.633636 -2.132135 1.670571
v 1.971198 -2.253590 0.550156
v 1.980678 -1.526294 0.349161
v 1.022352 1.674851 0.282865
v 1.014118 1.034129 0.143739
v 1.349506 1.156800 0.929268
v 1.355790 1.821226 1.402990
v 0.351465 1.637423 0.112630
v 0.329337 1.014803 0.223032
v 0.680086 1.008765 0.006466
v 0.683030 1.686192 0.339872
v 0.335664 0.508086 0.065161
v 0.330381 0.060304 0.078184
v 0.666630 0.124880 0.356933
v 0.669538 0.547187 0.206524
v 1.061717 4.490108 -0.052507
v 1.051710 3.746685 0.755528
v 1.382472 3.821091 0.061221
v 1.395587 4.485408 -0.147194
v 0.393121 4.496220 -0.081695
v 0.384312 3.744600 0.708413
v 0.711949 3.703549 1.282488
v 0.727914 4.479635 0.091336
v 2.395237 4.476551 -0.057853
v 2.387155 3.811718 -0.035178
v 2.720946 3.808367 -0.013499
v 2.729922 4.472622 -0.048802
v 1.725178 4.484151 -0.066323
v 1.707792 3.818619 0.086778
v 2.050931 3.816310 -0.022545
v 2.058448 4.480724 -0.037357
v 1.705604 3.079504 0.298929
v 1.699613 2.359931 1.357884
v 2.033105 2.292355 0.903755
v 2.038877 3.080733 0.161258
v -0.278392 4.504231 -0.184776
v -0.300972 3.832402 0.040315
v 0.049133 3.836825 -0.050752
v 0.057190 4.500827 -0.188246
v -0.345909 -0.446190 0.086992
v -0.351656 -0.955510 0.098128
v -0.026167 -0.920509 0.241480
v -0.013764 -0.420316 0.135742
v -0.383920 -2.998657 0.271986
v -0.053939 -3.715226 0.249805
v -0.053237 -2.996903 0.337950
v -0.316380 1.624870 -0.044696
v -0.325319 0.982992 -0.006876
v 0.004610 0.988930 0.070244
v 0.014211 1.623784 0.022170
v 2.357492 1.610756 0.362968
v 2.348923 0.993892 0.231777
v 2.682378 0.962690 0.139308
v 2.691001 1.592548 0.104271
v 1.675911 0.649629 0.985815
v 1.672571 0.188344 1.440966
v 2.002690 0.123651 0.432710
v 2.008632 0.539508 0.238853
v 2.294773 -3.034966 0.326699
v 2.285234 -3.741468 0.364132
v 2.618876 -3.744713 0.387917
v 2.628413 -3.038982 0.350410
v 1.629067 -2.894679 1.159408
v 1.618083 -3.725485 0.431073
v 1.951593 -3.738223 0.340347
v 1.961268 -3.018011 0.417943
v 1.609273 -4.377209 0.350694
v 1.602068 -4.910342 0.379028
v 1.935709 -4.913586 0.402813
v 1.942914 -4.380454 0.374479
v 1.680726 1.195002 1.463896
v 2.015800 1.066113 0.979224
v 2.022480 1.639656 1.434976
v -0.265964 5.043880 -0.285492
v 0.067189 5.041008 -0.254818
v 1.736497 5.023942 -0.151461
v 2.070529 5.020399 -0.133194
v 1.403391 5.026777 -0.182812
v 2.403828 5.017415 -0.104581
v 2.737243 5.014344 -0.077592
v 0.366491 3.145801 1.347930
v 0.366916 2.457329 0.776827
v 0.401754 5.037056 -0.244087
v 0.735396 5.033812 -0.220302
v 1.069223 5.030425 -0.199153
v 0.689313 2.561204 1.444183
v 1.305403 -1.476788 1.659891
v 1.006100 0.212540 1.384438
v 0.955540 -2.115021 1.776146
v 0.979835 -1.476272 1.051258
v 1.009035 0.681952 0.936075
v 1.353418 0.718100 1.285775
v 1.375793 0.200650 1.558832
v 1.192779 -2.028261 2.984098
v 0.644996 3.154456 2.804263
v 1.675652 1.838307 2.280335
vn -0.0714 0.0186 0.9973
vn -0.0784 0.0171 0.9968
vn -0.0705 0.0539 0.9961
vn -0.0594 0.0583 0.9965
vn -0.0588 0.0572 0.9966
vn -0.0587 0.0571 0.9966
vn -0.0753 0.1323 0.9883
vn -0.0009 0.0405 0.9992
vn -0.2668 -0.1106 0.9574
vn 0.1345 0.1108 0.9847
vn 0.8455 0.0144 0.5338
vn -0.0612 0.0496 0.9969
vn -0.0652 0.0499 0.9966
vn -0.0653 0.0500 0.9966
vn -0.0614 0.0495 0.9969
vn 0.0440 0.0004 0.9990
vn -0.5527 -0.5968 0.5817
vn -0.1998 0.0805 0.9765
vn -0.0755 0.0402 0.9963
vn -0.4577 -0.7548 0.4699
vn 0.2701 -0.1730 0.9471
vn -0.5249 0.1641 0.8352
vn -0.0581 0.0546 0.9968
vn -0.0589 0.0518 0.9969
vn -0.0590 0.0516 0.9969
vn -0.0581 0.0545 0.9968
vn 0.6762 -0.4544 0.5800
vn 0.9331 0.1638 0.3201
vn -0.9256 -0.1524 0.3464
vn -0.0048 -0.1690 0.9856
vn -0.5420 0.1601 0.8250
vn 0.6732 0.4256 0.6047
vn -0.5233 0.6780 0.5163
vn -0.0454 0.0441 0.9980
vn 0.1181 0.1222 0.9855
vn 0.5438 0.6418 0.5408
vn 0.1316 0.2569 0.9574
vn -0.2883 0.1152 0.9506
vn -0.1608 -0.1044 0.9815
vn -0.2130 0.0687 0.9746
vn 0.4603 -0.0746 0.8846
vn 0.9178 0.2298 0.3237
vn -0.0689 0.0524 0.9962
vn -0.0704 0.0539 0.9961
vn -0.0704 0.0538 0.9961
vn 0.7092 -0.3325 0.6217
vn -0.0703 0.0537 0.9961
vn 0.0989 -0.0369 0.9944
vn 0.1923 -0.2534 0.9481
vn -0.0700 0.0536 0.9961
vn 0.9225 -0.1573 0.3525
vn 0.4934 -0.6332 0.5963
vn 0.4616 -0.0619 0.8849
vn 0.0997 -0.0293 0.9946
vn 0.6842 -0.5508 0.4779
vn 0.4638 0.1425 0.8744
vn 0.9248 0.1700 0.3404
vn 0.9195 -0.1833 0.3478
vn -0.1508 0.0035 0.9886
vn -0.1735 0.1107 0.9786
vn -0.1992 0.0436 0.9790
vn -0.0387 0.1538 0.9873
vn 0.3332 0.2415 0.9114
vn -0.0686 0.2773 0.9583
vn -0.3948 0.7004 0.5946
vn -0.0679 0.1664 0.9837
vn -0.1652 0.1124 0.9798
vn -0.1533 0.2625 0.9527
vn -0.0530 0.0703 0.9961
vn -0.0106 0.1310 0.9913
vn 0.0495 0.0276 0.9984
vn -0.9220 0.2207 0.3182
vn -0.9318 -0.1581 0.3267
vn -0.2497 0.3878 0.8873
vn -0.1660 0.2071 0.9641
vn -0.7041 0.3950 0.5900
vn 0.1169 0.1634 0.9796
vn 0.1634 0.3791 0.9108
vn 0.4779 0.6964 0.5355
vn 0.1070 0.0428 0.9933
vn -0.2769 -0.2006 0.9397
vn -0.0041 0.1480 0.9890
vn -0.6180 -0.5638 0.5479
vn -0.7475 -0.2433 0.6181
vn -0.3488 0.1258 0.9287
vn -0.8651 0.0193 0.5013
vn 0.5094 -0.6074 0.6096
vn -0.1047 -0.3348 0.9365
vn 0.7367 0.3974 0.5472
vn 0.5080 0.7258 0.4639
vn 0.9081 -0.2180 0.3575
vn 0.4095 -0.7822 0.4695
vn 0.4498 -0.1177 0.8853
vn 0.0998 -0.0603 0.9932
vn -0.0067 0.0466 0.9989
vn 0.0497 -0.1148 0.9921
vn 0.1085 0.0826 0.9907
vn -0.2887 0.1273 0.9489
vn -0.2036 0.2588 0.9442
vn -0.2528 0.0257 0.9672
vn -0.9166 -0.1729 0.3604
vn -0.7163 -0.4142 0.5616
vn -0.0884 -0.2106 0.9736
vn -0.2683 -0.0895 0.9592
vn -0.0854 0.0156 0.9962
vn -0.4988 0.0456 0.8655
vn 0.0947 0.1484 0.9844
vn -0.2167 -0.0074 0.9762
vn -0.9317 -0.1530 0.3295
vn -0.6482 -0.2885 0.7047
vn -0.1823 -0.2330 0.9552
vn -0.0757 -0.1625 0.9838
vn -0.1389 0.0094 0.9903
vn -0.5382 0.7125 0.4501
vn -0.7707 0.3769 0.5138
vn -0.9351 0.2196 0.2782
vn 0.1186 0.1345 0.9838
vn 0.4744 0.1343 0.8700
vn -0.7512 0.5440 0.3737
vn -0.7034 0.5550 0.4440
vn -0.9181 0.2251 0.3263
vn 0.9176 0.1950 0.3464
vn -0.0329 0.0676 0.9972
vn 0.2156 0.1563 0.9639
vn 0.7491 0.3216 0.5791
vn -0.0918 0.1118 0.9895
vn -0.1407 0.0444 0.9891
vn -0.0995 0.0168 0.9949
vn -0.0595 0.0016 0.9982
vn 0.0996 -0.0590 0.9933
vn 0.6541 -0.4808 0.5840
vn 0.4859 0.2101 0.8484
vn -0.5248 0.4956 0.6921
vn -0.8338 0.4998 0.2346
vn -0.8616 -0.4319 0.2667
vn 0.7069 -0.5116 0.4884
vn 0.8208 -0.4145 0.3931
vn -0.3403 -0.1150 0.9332
vn 0.5246 0.5147 0.6781
vn 0.8386 0.4138 0.3543
vn -0.7661 0.5205 0.3771
vn -0.8296 -0.3918 0.3979
vn -0.8097 0.5309 0.2502
vn 0.8427 0.4274 0.3274
vn 0.6128 -0.3729 0.6967
vn -0.6593 -0.2881 0.6945
vn -0.8353 -0.4525 0.3123
vn 0.8022 0.5119 0.3072
vn 0.8373 -0.4441 0.3189
usemtl Zemin
s 1
f 1//1 2//1 3//2 4//2
usemtl Dag
f 6//3 7//3 8//3 9//3
f 10//4 11//5 12//6 13//4
f 14//7 15//7 16//7 17//7
f 18//8 19//8 20//8 21//8
f 22//9 23//9 24//9 25//9
f 26//10 27//10 28//10 29//10
f 30//11 31//11 32//11 33//11
f 34//12 35//13 36//14 37//15
f 38//16 39//16 40//16 41//16
f 42//17 43//17 44//17 45//17
f 46//18 47//18 48//18 49//18
f 50//19 51//19 52//19 53//19
f 54//20 55//20 56//20 57//20
f 58//21 59//21 60//21 61//21
f 62//22 63//22 64//22 65//22
f 66//23 67//24 68//25 69//26
f 70//27 71//27 72//27 73//27
f 74//28 75//28 76//28 77//28
f 78//29 79//29 80//29 81//29
f 82//30 83//30 84//30 85//30
f 86//31 87//31 88//31 89//31
f 90//32 91//32 92//32 93//32
f 94//33 95//33 96//33 97//33
f 98//34 99//34 100//34 101//34
f 102//35 103//35 104//35 105//35
f 106//36 107//36 108//36 109//36
f 110//37 111//37 112//37 113//37
f 114//38 115//38 116//38 117//38
f 118//39 5//39 119//39 120//39
f 121//40 122//40 123//40 124//40
f 125//41 126//41 127//41 128//41
f 129//42 130//42 131//42 132//42
f 133//43 134//44 135//45 136//43
f 137//46 138//46 139//46 140//46
f 141//47 142//47 143//3 144//3
f 138//48 141//48 144//48 139//48
f 44//49 41//49 141//49 138//49
f 41//50 40//50 142//47 141//47
f 75//51 137//51 140//51 76//51
f 45//52 44//52 138//52 137//52
f 35//13 133//43 136//43 36//14
f 76//53 140//53 133//53 35//53
f 140//54 139//54 134//54 133//54
f 145//55 129//55 132//55 146//55
f 27//56 125//56 128//56 28//56
f 108//57 147//57 125//57 27//57
f 147//58 146//58 126//58 125//58
f 23//59 121//59 124//59 24//59
f 19//60 118//60 120//60 20//60
f 15//61 114//61 117//61 16//61
f 148//62 110//62 113//62 149//62
f 103//63 106//63 109//63 104//63
f 92//64 33//64 106//64 103//64
f 33//65 32//65 107//65 106//65
f 150//66 102//66 105//66 151//66
f 152//67 93//67 102//67 150//67
f 93//68 92//68 103//68 102//68
f 153//69 98//69 101//69 154//69
f 151//70 105//70 98//70 153//70
f 105//71 104//71 99//71 98//71
f 112//72 25//72 155//72 95//72
f 25//73 24//73 156//73 155//73
f 157//74 94//74 97//74 158//74
f 149//75 113//75 94//75 157//75
f 113//76 112//76 95//76 94//76
f 159//77 90//77 93//77 152//77
f 158//78 97//78 90//78 159//78
f 97//79 96//79 91//79 90//79
f 83//80 86//80 89//80 84//80
f 123//81 17//81 86//81 83//81
f 17//82 16//82 87//82 86//82
f 156//83 82//83 85//83 160//83
f 24//84 124//84 82//84 156//84
f 124//85 123//85 83//85 82//85
f 31//86 78//86 81//86 32//86
f 160//87 85//87 78//87 31//87
f 85//88 84//88 79//88 78//88
f 71//89 74//89 77//89 72//89
f 56//90 161//90 74//90 71//90
f 130//91 70//91 73//91 131//91
f 57//92 56//92 71//92 70//92
f 11//5 66//23 69//26 12//6
f 131//93 73//93 66//93 11//93
f 73//94 72//94 67//94 66//94
f 59//95 62//95 65//95 60//95
f 116//96 21//96 62//96 59//96
f 21//97 20//97 63//97 62//97
f 87//98 58//98 61//98 88//98
f 16//99 117//99 58//99 87//99
f 117//100 116//100 59//100 58//100
f 88//101 61//101 54//101 162//101
f 61//102 60//102 55//102 54//102
f 47//103 50//103 53//103 48//103
f 119//104 4//104 50//104 47//104
f 4//2 3//2 51//105 50//105
f 63//106 46//106 49//106 64//106
f 20//107 120//107 46//107 63//107
f 120//108 119//108 47//108 46//108
f 64//109 49//109 42//109 163//109
f 49//110 48//110 43//110 42//110
f 43//111 38//111 41//111 44//111
f 48//112 53//112 38//112 43//112
f 53//113 52//113 39//113 38//113
f 55//114 164//114 161//114 56//114
f 60//115 65//115 164//115 55//115
f 65//116 64//116 163//116 164//116
f 67//24 34//12 37//15 68//25
f 72//117 77//117 34//117 67//117
f 77//118 76//118 35//118 34//118
f 79//119 165//119 166//119 80//119
f 84//120 89//120 165//120 79//120
f 89//121 88//121 162//121 165//121
f 91//122 30//122 33//122 92//122
f 99//123 26//123 29//123 100//123
f 104//124 109//124 26//124 99//124
f 109//125 108//125 27//125 26//125
f 111//126 22//126 25//126 112//126
f 115//127 18//127 21//127 116//127
f 5//128 1//128 4//128 119//128
f 122//129 14//129 17//129 123//129
f 126//130 10//130 13//130 127//130
f 146//131 132//131 10//131 126//131
f 132//132 131//132 11//132 10//132
f 134//44 6//3 9//3 135//45
f 139//3 144//3 6//3 134//44
f 144//3 143//3 7//3 6//3
usemtl Kar
f 165//133 162//133 167//133 166//133
f 164//134 163//134 168//134 161//134
f 155//135 156//135 160//135 169//135
f 170//136 145//136 146//136 147//136
f 168//137 45//137 137//137 75//137
f 80//138 166//138 129//138 145//138
f 166//139 167//139 130//139 129//139
f 107//140 170//140 147//140 108//140
f 32//141 81//141 170//141 107//141
f 81//142 80//142 145//142 170//142
f 95//143 155//143 169//143 96//143
f 161//144 168//144 75//144 74//144
f 167//145 57//145 70//145 130//145
f 162//146 54//146 57//146 167//146
f 163//147 42//147 45//147 168//147
f 96//148 169//148 30//148 91//148
f 169//149 160//149 31//149 30//149
