# Blender v2.81 (sub 16) OBJ File: ''
# www.blender.org
mtllib mountainBig.mtl
o Sahne_Plane
v 2.620390 4.400904 -0.046116
v 2.613662 4.934795 -0.046116
v 2.738793 4.934795 -0.046116
v -0.055356 4.367074 -0.019015
v -0.389778 4.362864 -0.012946
v -0.061757 4.901083 0.000002
v 2.285962 4.396689 -0.040351
v 2.279235 4.930581 -0.040351
v 2.347433 -0.491119 -0.047304
v 2.341790 -0.046522 -0.049648
v 2.675878 -0.010018 -0.051515
v 2.681580 -0.460222 -0.049834
v -0.330270 -0.470650 -0.094018
v -0.335635 -0.010576 -0.068945
v -0.001942 -0.032045 -0.136109
v 0.005391 -0.481556 -0.039267
v -0.357254 1.584991 -0.156734
v -0.365069 2.286827 -0.097057
v -0.031044 2.285443 -0.130300
v -0.021356 1.573740 -0.088499
v -0.298659 -3.099884 -0.182175
v -0.306935 -2.348508 -0.112995
v 0.035518 -2.347619 -0.130336
v 0.053515 -3.089391 -0.318503
v 2.379697 -3.073508 -0.063300
v 2.376734 -2.314469 -0.155039
v 2.704986 -2.312685 -0.046118
v 2.714522 -3.069446 -0.046118
v 1.113652 -3.075199 -1.463843
v 1.081619 -2.419493 -0.898581
v 1.415517 -2.373396 -0.904451
v 1.390937 -3.080108 -0.363791
v 2.321510 1.565449 -0.047774
v 2.312364 2.297169 -0.043491
v 2.646627 2.317045 -0.047312
v 2.655654 1.596781 -0.050169
v 0.947114 4.378853 -0.084070
v 0.941334 4.913722 -0.028345
v 1.275952 4.917939 -0.023057
v 1.282674 4.384048 -0.023372
v 1.013877 2.944532 -0.907382
v 0.961902 3.731269 -0.174258
v 1.305841 3.716678 -0.331964
v 1.372914 2.855737 -1.497738
v 0.293931 3.017141 -0.152578
v 0.284433 3.719838 -0.189923
v 0.618440 3.723229 -0.220711
v 0.635520 3.014660 -0.222510
v 0.278962 4.371248 -0.031160
v 0.272612 4.905295 -0.009099
v 0.606758 4.909506 -0.031241
v 0.613613 4.375599 -0.023819
v 1.046409 0.341067 -0.923221
v 0.997939 0.860146 -0.182486
v 1.342056 0.853250 -0.324232
v 1.405970 0.390878 -1.381859
v 0.324945 0.385232 -0.277309
v 0.320316 0.902455 -0.167808
v 0.657321 0.883614 -0.040896
v 0.669748 0.358692 -0.178375
v 0.314110 1.553275 -0.052076
v 0.304888 2.279434 -0.056202
v 0.654912 2.263456 -0.336710
v 0.655489 1.532321 -0.147653
v 2.336046 0.407695 -0.050829
v 2.329609 0.919101 -0.050435
v 2.663678 0.957395 -0.052091
v 2.670106 0.446872 -0.052381
v 1.715293 0.346415 -0.935333
v 1.667434 0.863169 -0.160842
v 1.995470 0.887016 -0.048283
v 2.008254 0.362738 -0.164675
v 1.700421 1.535714 -0.928699
v 1.716116 2.217343 -1.464210
v 1.993292 2.278102 -0.322496
v 1.993475 1.541047 -0.160639
v 1.039237 -1.658160 -0.317542
v 1.022353 -1.025834 -0.144837
v 1.399339 -1.106417 -0.916833
v 1.432141 -1.744431 -1.424551
v 0.360165 -1.629323 -0.181532
v 0.342731 -1.001650 -0.259353
v 0.681436 -1.007579 -0.024394
v 0.703456 -1.666112 -0.393075
v 0.339650 -0.504156 -0.074380
v 0.334193 -0.056317 -0.063595
v 0.684936 -0.106125 -0.327096
v 0.680654 -0.535907 -0.199648
v 1.066188 -4.487407 -0.132253
v 1.097775 -3.701624 -0.898573
v 1.391236 -3.813538 -0.192629
v 1.394532 -4.488108 -0.019796
v 0.396999 -4.494469 -0.139103
v 0.428812 -3.701467 -0.887044
v 0.786477 -3.629921 -1.439810
v 0.740500 -4.468915 -0.292908
v 2.397502 -4.475373 -0.055139
v 2.389340 -3.810275 -0.042469
v 2.723804 -3.806068 -0.046120
v 2.732186 -4.471268 -0.046120
v 1.727959 -4.482807 -0.082805
v 1.717450 -3.809993 -0.200646
v 2.054275 -3.813874 -0.073228
v 2.062292 -4.478131 -0.093746
v 1.725119 -3.060543 -0.372602
v 1.774126 -2.285094 -1.390190
v 2.082827 -2.242326 -0.915963
v 2.050589 -3.069473 -0.217636
v -0.279033 -4.507396 -0.072529
v -0.290907 -3.824421 -0.262092
v 0.053860 -3.834051 -0.152868
v 0.055881 -4.504489 -0.051005
v -0.341657 0.450536 -0.081208
v -0.347798 0.959723 -0.065261
v -0.015069 0.932179 -0.192738
v -0.007337 0.427016 -0.113509
v -0.374750 3.009289 -0.130594
v -0.381926 3.719538 -0.027701
v -0.047820 3.723329 -0.052402
v -0.041021 3.010781 -0.178843
v -0.315135 -1.624635 -0.059568
v -0.323301 -0.981644 -0.063278
v 0.010277 -0.983729 -0.122917
v 0.018545 -1.620259 -0.108569
v 2.376621 -1.591070 -0.322830
v 2.359872 -0.982141 -0.159338
v 2.687867 -0.956257 -0.047689
v 2.695843 -1.587096 -0.046126
v 1.727300 -0.597239 -0.928584
v 1.747303 -0.112157 -1.357831
v 2.023130 -0.102044 -0.331400
v 2.019552 -0.527723 -0.160119
v 2.302979 3.046045 -0.040468
v 2.294066 3.753545 -0.040351
v 2.628494 3.757759 -0.046116
v 2.637399 3.051024 -0.046118
v 1.682840 2.951319 -0.913797
v 1.631460 3.741791 -0.143507
v 1.959639 3.749331 -0.034586
v 1.974840 3.034322 -0.150131
v 1.617107 4.388261 -0.028822
v 1.610380 4.922153 -0.028822
v 1.944807 4.926367 -0.034586
v 1.951535 4.392476 -0.034586
v 1.758635 -1.116135 -1.434332
v 2.067168 -1.013784 -0.926272
v 2.099233 -1.562012 -1.411169
v -0.270932 -5.051689 -0.000426
v 0.063376 -5.047476 -0.013106
v 1.735783 -5.026403 -0.026302
v 2.070306 -5.022187 -0.026528
v 1.401486 -5.030615 -0.012942
v 2.404650 -5.017975 -0.037139
v 2.739022 -5.013761 -0.046120
v 0.443905 -3.069148 -1.493511
v 0.412569 -2.412364 -0.887042
v 0.398029 -5.043260 -0.005767
v 0.732457 -5.039045 -0.011531
v 1.066930 -5.034831 -0.014650
v 0.770251 -2.480518 -1.540886
v 1.389061 1.562669 -1.506252
v 1.078815 -0.138748 -1.338277
v 1.044639 2.206546 -1.606534
v 1.031543 1.529741 -0.916739
v 1.058785 -0.631580 -0.916257
v 1.421374 -0.649196 -1.248545
v -0.236972 4.901083 0.000002
v -0.273340 4.901083 0.000002
v 1.457248 -0.117840 -1.491834
v 1.346042 2.184613 -2.803043
v 0.799589 -2.999778 -2.931295
v 1.798306 -1.714628 -2.283256
v -0.389778 4.362864 6.134449
v -0.330270 -0.470650 6.053378
v -0.335635 -0.010576 6.078451
v -0.357254 1.584991 5.990663
v -0.365069 2.286827 6.050340
v -0.298659 -3.099884 5.965221
v -0.306935 -2.348508 6.034400
v -0.279033 -4.507396 6.074867
v -0.290907 -3.824421 5.885304
v -0.341657 0.450536 6.066188
v -0.347798 0.959723 6.082135
v -0.374750 3.009289 6.016803
v -0.381926 3.719538 6.119695
v -0.315135 -1.624635 6.087828
v -0.323301 -0.981644 6.084118
v -0.270932 -5.051689 6.146970
v -0.236972 4.901083 6.147398
v -0.273340 4.901083 6.147398
v 2.613662 4.934795 6.098385
v 2.738793 4.934795 6.098385
v -0.061757 4.901083 6.144503
v 2.279235 4.930581 6.104150
v 0.941334 4.913722 6.116156
v 1.275952 4.917939 6.121444
v 0.272612 4.905295 6.135402
v 0.606758 4.909506 6.113260
v 1.610380 4.922153 6.115679
v 1.944807 4.926367 6.109915
v -0.236972 4.901083 6.144503
v -0.273340 4.901083 6.144503
v 2.620390 4.400904 6.072081
v 2.738793 4.934795 6.072081
v 2.675878 -0.010018 6.066681
v 2.681580 -0.460222 6.068363
v 2.704986 -2.312685 6.072078
v 2.714522 -3.069446 6.072078
v 2.646627 2.317045 6.070885
v 2.655654 1.596781 6.068028
v 2.663678 0.957395 6.066105
v 2.670106 0.446872 6.065815
v 2.723804 -3.806068 6.072077
v 2.732186 -4.471268 6.072076
v 2.687867 -0.956257 6.070508
v 2.695843 -1.587096 6.072070
v 2.628494 3.757759 6.072080
v 2.637399 3.051024 6.072079
v 2.739022 -5.013761 6.072076
v -0.270932 -5.051689 6.070404
v 0.063376 -5.047476 6.057724
v 1.735783 -5.026403 6.044528
v 2.070306 -5.022187 6.044302
v 1.401486 -5.030615 6.057888
v 2.404650 -5.017975 6.033690
v 2.739022 -5.013761 6.024709
v 0.398029 -5.043260 6.065063
v 0.732457 -5.039045 6.059299
v 1.066930 -5.034831 6.056180
vn 0.0000 -1.0000 0.0000
vn 0.9774 -0.2114 0.0000
vn 0.0000 1.0000 0.0000
vn 0.0000 0.0000 -1.0000
vn -0.0063 1.0000 0.0000
vn 0.9947 -0.1026 0.0000
vn 0.9763 -0.2165 0.0000
vn -0.0254 0.0367 -0.9990
vn -0.7418 0.2288 -0.6304
vn -0.0193 0.0330 -0.9993
vn -0.0172 -0.0002 -0.9999
vn -0.0061 -0.0046 -1.0000
vn -0.0055 -0.0035 -1.0000
vn -0.0054 -0.0034 -1.0000
vn -0.0223 -0.0789 -0.9966
vn 0.0524 0.0133 -0.9985
vn -0.2157 0.1622 -0.9629
vn 0.1870 -0.0578 -0.9807
vn 0.8727 0.0136 -0.4880
vn -0.0080 0.0041 -1.0000
vn -0.0119 0.0038 -0.9999
vn -0.0120 0.0037 -0.9999
vn -0.0081 0.0042 -1.0000
vn 0.0971 0.0532 -0.9938
vn -0.5221 0.6277 -0.5774
vn -0.1474 -0.0277 -0.9887
vn -0.0223 0.0134 -0.9997
vn -0.4335 0.7793 -0.4524
vn 0.3199 0.2234 -0.9207
vn -0.4793 -0.1185 -0.8696
vn -0.0049 -0.0009 -1.0000
vn -0.0056 0.0020 -1.0000
vn -0.0057 0.0021 -1.0000
vn -0.0049 -0.0008 -1.0000
vn 0.7052 0.4843 -0.5179
vn 0.9491 -0.1472 -0.2783
vn -0.9062 0.1716 -0.3865
vn 0.0473 0.2217 -0.9740
vn -0.4970 -0.1150 -0.8601
vn 0.7053 -0.3931 -0.5900
vn -0.4937 -0.6488 -0.5791
vn 0.0079 0.0096 -0.9999
vn 0.1707 -0.0692 -0.9829
vn 0.5731 -0.6123 -0.5447
vn 0.1829 -0.2052 -0.9615
vn -0.2371 -0.0637 -0.9694
vn -0.1085 0.1572 -0.9816
vn -0.1606 -0.0160 -0.9869
vn 0.5066 0.1216 -0.8536
vn 0.9342 -0.2129 -0.2862
vn -0.0157 0.0013 -0.9999
vn -0.0171 -0.0002 -0.9999
vn 0.7406 0.3648 -0.5643
vn -0.0170 -0.0001 -0.9999
vn 0.1516 0.0902 -0.9843
vn 0.2420 0.3038 -0.9215
vn -0.0168 0.0001 -0.9999
vn 0.9396 0.1752 -0.2939
vn 0.5232 0.6639 -0.5343
vn 0.5079 0.1090 -0.8545
vn 0.1524 0.0827 -0.9848
vn 0.7076 0.5751 -0.4105
vn 0.5100 -0.0957 -0.8548
vn 0.9419 -0.1523 -0.2993
vn 0.9363 0.2009 -0.2880
vn -0.0979 0.0498 -0.9939
vn -0.1209 -0.0578 -0.9910
vn -0.1467 0.0093 -0.9891
vn 0.0142 -0.1004 -0.9948
vn 0.3817 -0.1925 -0.9040
vn -0.0169 -0.2253 -0.9741
vn -0.3613 -0.6671 -0.6516
vn -0.0151 -0.1132 -0.9935
vn -0.1126 -0.0594 -0.9919
vn -0.1019 -0.2108 -0.9722
vn 0.0003 -0.0166 -0.9999
vn 0.0425 -0.0775 -0.9961
vn 0.1027 0.0261 -0.9944
vn -0.9033 -0.2024 -0.3783
vn -0.9134 0.1763 -0.3669
vn -0.2014 -0.3393 -0.9189
vn -0.1140 -0.1548 -0.9813
vn -0.6709 -0.3621 -0.6471
vn 0.1692 -0.1106 -0.9793
vn 0.2124 -0.3298 -0.9199
vn 0.5071 -0.6670 -0.5459
vn 0.1599 0.0105 -0.9871
vn -0.2269 0.2511 -0.9410
vn 0.0489 -0.0947 -0.9943
vn -0.5890 0.5930 -0.5490
vn -0.7140 0.2769 -0.6431
vn -0.2986 -0.0754 -0.9514
vn -0.8371 0.0085 -0.5470
vn 0.5399 0.6388 -0.5481
vn -0.0553 0.3848 -0.9214
vn 0.7655 -0.3680 -0.5277
vn 0.5334 -0.7003 -0.4745
vn 0.9254 0.2361 -0.2964
vn 0.4324 0.8059 -0.4043
vn 0.4961 0.1647 -0.8525
vn 0.1524 0.1135 -0.9818
vn 0.0466 0.0072 -0.9989
vn 0.1022 0.1679 -0.9805
vn 0.1612 -0.0294 -0.9865
vn -0.2375 -0.0758 -0.9684
vn -0.1525 -0.2075 -0.9663
vn -0.2008 0.0266 -0.9793
vn -0.8965 0.1929 -0.3989
vn -0.6862 0.4444 -0.5759
vn -0.0369 0.2627 -0.9642
vn -0.2170 0.1411 -0.9659
vn -0.0322 0.0380 -0.9988
vn -0.4520 0.0015 -0.8920
vn 0.1473 -0.0954 -0.9845
vn -0.1644 0.0601 -0.9846
vn -0.9131 0.1713 -0.3699
vn -0.6103 0.3265 -0.7218
vn -0.1317 0.2842 -0.9497
vn -0.0235 0.2152 -0.9763
vn -0.0859 0.0440 -0.9953
vn -0.5121 -0.6868 -0.5158
vn -0.7415 -0.3481 -0.5736
vn -0.9185 -0.2035 -0.3390
vn 0.1711 -0.0815 -0.9819
vn 0.5203 -0.0878 -0.8495
vn -0.7292 -0.5225 -0.4419
vn -0.6777 -0.5297 -0.5100
vn -0.8990 -0.2064 -0.3863
vn 0.9351 -0.1770 -0.3070
vn 0.0204 -0.0139 -0.9997
vn 0.2669 -0.1045 -0.9580
vn 0.7795 -0.2907 -0.5548
vn -0.0387 -0.0584 -0.9975
vn -0.0877 0.0089 -0.9961
vn -0.0464 0.0368 -0.9982
vn -0.0063 0.0521 -0.9986
vn 0.1522 0.1122 -0.9820
vn 0.6833 0.5108 -0.5216
vn 0.5308 -0.1646 -0.8314
vn -0.6264 0.1960 -0.7545
vn -0.9999 -0.0126 0.0000
vn -0.9999 -0.0124 0.0000
vn 0.0000 0.0241 -0.9997
vn -0.7356 0.2242 -0.6393
vn -0.9610 0.2738 -0.0398
vn -0.9999 -0.0136 0.0000
vn -0.9999 -0.0135 0.0000
vn -0.9999 -0.0123 0.0000
vn -0.9999 -0.0131 0.0000
vn -0.9999 -0.0132 0.0000
vn -0.9999 -0.0120 0.0000
vn -0.9999 -0.0108 0.0000
vn -0.9999 -0.0138 0.0000
vn -0.9999 -0.0142 0.0000
vn -0.9999 -0.0109 0.0000
vn -0.9999 -0.0122 0.0000
vn -0.9999 -0.0111 0.0000
vn -0.9999 -0.0112 0.0000
vn -0.9999 -0.0163 0.0000
vn -0.9999 -0.0149 0.0000
vn -0.9999 -0.0160 0.0000
vn -0.9999 -0.0127 0.0000
vn -0.9999 -0.0118 0.0000
vn -0.9999 -0.0117 0.0000
vn -0.0126 0.9999 0.0000
vn -0.0064 1.0000 0.0000
vn -0.0062 1.0000 0.0000
vn 0.9999 0.0126 0.0000
vn 0.9999 0.0127 0.0000
vn 0.9999 0.0125 0.0000
vn 0.0126 -0.9999 0.0000
vn -0.4862 -0.4572 -0.7447
vn -0.8191 -0.4857 -0.3052
vn -0.8470 0.4464 -0.2886
vn 0.7309 0.5364 -0.4219
vn 0.8397 0.4343 -0.3260
vn -0.2904 0.1653 -0.9425
vn 0.5610 -0.4780 -0.6758
vn 0.8571 -0.3950 -0.3308
vn -0.7439 -0.4988 -0.4448
vn -0.8080 0.4133 -0.4199
vn -0.7942 -0.5159 -0.3211
vn 0.8598 -0.4100 -0.3045
vn 0.6483 0.4092 -0.6420
vn -0.6220 0.3256 -0.7122
vn -0.8184 0.4694 -0.3316
vn 0.8185 -0.4953 -0.2911
vn 0.8522 0.4598 -0.2495
usemtl Zemin
s off
f 168//1 167//1 189//1 190//1
f 5//2 168//2 190//2 173//2
f 167//3 168//3 202//3 201//3
s 1
f 1//4 2//4 3//4
f 3//3 2//5 191//5 192//3
f 1//6 3//7 204//7 203//6
usemtl Dag
f 4//8 5//9 6//10
f 7//11 8//11 2//11 1//11
f 9//12 10//13 11//14 12//12
f 13//15 14//15 15//15 16//15
f 17//16 18//16 19//16 20//16
f 21//17 22//17 23//17 24//17
f 25//18 26//18 27//18 28//18
f 29//19 30//19 31//19 32//19
f 33//20 34//21 35//22 36//23
f 37//24 38//24 39//24 40//24
f 41//25 42//25 43//25 44//25
f 45//26 46//26 47//26 48//26
f 49//27 50//27 51//27 52//27
f 53//28 54//28 55//28 56//28
f 57//29 58//29 59//29 60//29
f 61//30 62//30 63//30 64//30
f 65//31 66//32 67//33 68//34
f 69//35 70//35 71//35 72//35
f 73//36 74//36 75//36 76//36
f 77//37 78//37 79//37 80//37
f 81//38 82//38 83//38 84//38
f 85//39 86//39 87//39 88//39
f 89//40 90//40 91//40 92//40
f 93//41 94//41 95//41 96//41
f 97//42 98//42 99//42 100//42
f 101//43 102//43 103//43 104//43
f 105//44 106//44 107//44 108//44
f 109//45 110//45 111//45 112//45
f 113//46 114//46 115//46 116//46
f 117//47 118//47 119//47 120//47
f 121//48 122//48 123//48 124//48
f 125//49 126//49 127//49 128//49
f 129//50 130//50 131//50 132//50
f 133//51 134//11 135//52 136//51
f 137//53 138//53 139//53 140//53
f 141//54 142//54 143//11 144//11
f 138//55 141//55 144//55 139//55
f 43//56 40//56 141//56 138//56
f 40//57 39//57 142//54 141//54
f 74//58 137//58 140//58 75//58
f 44//59 43//59 138//59 137//59
f 34//21 133//51 136//51 35//22
f 75//60 140//60 133//60 34//60
f 140//61 139//61 134//61 133//61
f 145//62 129//62 132//62 146//62
f 26//63 125//63 128//63 27//63
f 107//64 147//64 125//64 26//64
f 147//65 146//65 126//65 125//65
f 22//66 121//66 124//66 23//66
f 18//67 117//67 120//67 19//67
f 14//68 113//68 116//68 15//68
f 148//69 109//69 112//69 149//69
f 102//70 105//70 108//70 103//70
f 91//71 32//71 105//71 102//71
f 32//72 31//72 106//72 105//72
f 150//73 101//73 104//73 151//73
f 152//74 92//74 101//74 150//74
f 92//75 91//75 102//75 101//75
f 153//76 97//76 100//76 154//76
f 151//77 104//77 97//77 153//77
f 104//78 103//78 98//78 97//78
f 111//79 24//79 155//79 94//79
f 24//80 23//80 156//80 155//80
f 157//81 93//81 96//81 158//81
f 149//82 112//82 93//82 157//82
f 112//83 111//83 94//83 93//83
f 159//84 89//84 92//84 152//84
f 158//85 96//85 89//85 159//85
f 96//86 95//86 90//86 89//86
f 82//87 85//87 88//87 83//87
f 123//88 16//88 85//88 82//88
f 16//89 15//89 86//89 85//89
f 156//90 81//90 84//90 160//90
f 23//91 124//91 81//91 156//91
f 124//92 123//92 82//92 81//92
f 30//93 77//93 80//93 31//93
f 160//94 84//94 77//94 30//94
f 84//95 83//95 78//95 77//95
f 70//96 73//96 76//96 71//96
f 55//97 161//97 73//97 70//97
f 130//98 69//98 72//98 131//98
f 56//99 55//99 70//99 69//99
f 10//13 65//31 68//34 11//14
f 131//100 72//100 65//100 10//100
f 72//101 71//101 66//101 65//101
f 58//102 61//102 64//102 59//102
f 115//103 20//103 61//103 58//103
f 20//104 19//104 62//104 61//104
f 86//105 57//105 60//105 87//105
f 15//106 116//106 57//106 86//106
f 116//107 115//107 58//107 57//107
f 87//108 60//108 53//108 162//108
f 60//109 59//109 54//109 53//109
f 46//110 49//110 52//110 47//110
f 119//111 4//111 49//111 46//111
f 4//8 6//10 50//112 49//112
f 62//113 45//113 48//113 63//113
f 19//114 120//114 45//114 62//114
f 120//115 119//115 46//115 45//115
f 63//116 48//116 41//116 163//116
f 48//117 47//117 42//117 41//117
f 42//118 37//118 40//118 43//118
f 47//119 52//119 37//119 42//119
f 52//120 51//120 38//120 37//120
f 54//121 164//121 161//121 55//121
f 59//122 64//122 164//122 54//122
f 64//123 63//123 163//123 164//123
f 66//32 33//20 36//23 67//33
f 71//124 76//124 33//124 66//124
f 76//125 75//125 34//125 33//125
f 78//126 165//126 166//126 79//126
f 83//127 88//127 165//127 78//127
f 88//128 87//128 162//128 165//128
f 90//129 29//129 32//129 91//129
f 98//130 25//130 28//130 99//130
f 103//131 108//131 25//131 98//131
f 108//132 107//132 26//132 25//132
f 110//133 21//133 24//133 111//133
f 114//134 17//134 20//134 115//134
f 118//135 5//135 4//135 119//135
f 122//136 13//136 16//136 123//136
f 126//137 9//137 12//137 127//137
f 146//138 132//138 9//138 126//138
f 132//139 131//139 10//139 9//139
f 134//11 7//11 1//11 135//52
f 139//11 144//11 7//11 134//11
f 144//11 143//11 8//11 7//11
f 6//10 5//9 167//140
f 113//141 14//142 175//142 182//141
f 190//143 189//144 173//145
f 114//146 113//141 182//141 183//147
f 18//148 17//149 176//150 177//148
f 122//150 121//151 186//151 187//150
f 21//152 110//153 181//154 178//155
f 17//149 114//146 183//147 176//150
f 5//156 118//157 185//158 173//156
f 109//159 148//160 188//160 180//161
f 121//151 22//158 179//158 186//151
f 110//153 109//159 180//161 181//154
f 14//142 13//141 174//162 175//142
f 13//141 122//150 187//150 174//162
f 118//157 117//163 184//164 185//158
f 22//158 21//152 178//155 179//158
f 117//163 18//148 177//148 184//164
f 167//140 5//9 173//145 189//144
f 51//165 50//165 197//165 198//165
f 6//166 167//3 201//3 193//167
f 143//165 142//165 199//165 200//165
f 142//165 39//165 196//165 199//165
f 2//5 8//165 194//165 191//5
f 39//165 38//165 195//165 196//165
f 8//165 143//165 200//165 194//165
f 38//165 51//165 198//165 195//165
f 50//165 6//166 193//167 197//165
f 136//168 135//168 217//168 218//168
f 100//168 99//168 213//168 214//168
f 135//168 1//6 203//6 217//168
f 12//169 11//168 205//168 206//169
f 28//168 27//168 207//168 208//168
f 36//170 35//168 209//168 210//170
f 11//168 68//168 212//168 205//168
f 35//168 136//168 218//168 209//168
f 154//168 100//168 214//168 219//168
f 27//168 128//168 216//168 207//168
f 67//168 36//170 210//170 211//168
f 127//169 12//169 206//169 215//169
f 68//168 67//168 211//168 212//168
f 99//168 28//168 208//168 213//168
f 128//168 127//169 215//169 216//168
f 152//171 150//171 222//171 224//171
f 150//171 151//171 223//171 222//171
f 149//171 157//171 227//171 221//171
f 157//171 158//171 228//171 227//171
f 158//171 159//171 229//171 228//171
f 148//171 149//171 221//171 220//171
f 151//171 153//171 225//171 223//171
f 159//171 152//171 224//171 229//171
f 153//171 154//171 226//171 225//171
usemtl Kar
f 165//172 162//172 169//172 166//172
f 164//173 163//173 170//173 161//173
f 155//174 156//174 160//174 171//174
f 172//175 145//175 146//175 147//175
f 170//176 44//176 137//176 74//176
f 79//177 166//177 129//177 145//177
f 166//178 169//178 130//178 129//178
f 106//179 172//179 147//179 107//179
f 31//180 80//180 172//180 106//180
f 80//181 79//181 145//181 172//181
f 94//182 155//182 171//182 95//182
f 161//183 170//183 74//183 73//183
f 169//184 56//184 69//184 130//184
f 162//185 53//185 56//185 169//185
f 163//186 41//186 44//186 170//186
f 95//187 171//187 29//187 90//187
f 171//188 160//188 30//188 29//188
